<svg xmlns="http://www.w3.org/2000/svg" viewBox="0 0 400 400">
  <rect width="400" height="400" fill="#ffdceb"/>
  <!-- slim book, jacket straight-on -->
  <rect x="138" y="74" width="124" height="252" rx="8" fill="#ff5fa8"/>
  <!-- spine edge -->
  <path d="M146 74 H154 V326 H146 Q138 326 138 318 V82 Q138 74 146 74 Z" fill="#c9246f"/>
  <!-- two geese flying: body, neck and head, tail, raised wing -->
  <g fill="#14261d">
    <g transform="translate(182 196)">
      <ellipse cx="0" cy="0" rx="15" ry="6"/>
      <path d="M10 -2 L26 -9" fill="none" stroke="#14261d" stroke-width="5" stroke-linecap="round"/>
      <circle cx="28" cy="-10" r="4.5"/>
      <path d="M31 -12 L38 -10 L31 -7 Z"/>
      <path d="M-13 -2 L-22 -6 L-20 4 Z"/>
      <path d="M6 -4 C4 -16 -6 -26 -18 -30 C-12 -20 -10 -10 -8 -3 Z"/>
    </g>
    <g transform="translate(224 150) scale(0.85)">
      <ellipse cx="0" cy="0" rx="15" ry="6"/>
      <path d="M10 -2 L26 -9" fill="none" stroke="#14261d" stroke-width="5" stroke-linecap="round"/>
      <circle cx="28" cy="-10" r="4.5"/>
      <path d="M31 -12 L38 -10 L31 -7 Z"/>
      <path d="M-13 -2 L-22 -6 L-20 4 Z"/>
      <path d="M6 -4 C4 -16 -6 -26 -18 -30 C-12 -20 -10 -10 -8 -3 Z"/>
    </g>
  </g>
  <!-- soft horizon -->
  <path d="M166 240 Q200 230 248 240" fill="none" stroke="#256b4c" stroke-width="5" stroke-linecap="round"/>
  <!-- title bars, low on the jacket -->
  <rect x="172" y="272" width="64" height="9" rx="4.5" fill="#14261d"/>
  <rect x="172" y="290" width="40" height="7" rx="3.5" fill="#14261d"/>
</svg>
